<svg xmlns="http://www.w3.org/2000/svg" width="16" height="16">
  <path d="M 2 0 C 0.892 0 0 0.892 0 2 L 0 14 C 0 15.108 0.892 16 2 16 L 10 16 L 10 14 L 2 14 L 2 8 L 5 8 L 5 7 L 2 7 L 2 5 L 5 5 L 5 4 L 2 4 L 2 2 L 14 2 L 14 4 L 11 4 L 11 5 L 14 5 L 14 7 L 11 7 L 11 8 L 14 8 L 14 10 L 16 10 L 16 2 C 16 0.892 15.108 0 14 0 L 2 0 z M 6 3 L 6 6 L 6.9414062 6 L 5.4414062 9 L 3 9 L 3 12 L 7 12 L 7 9 L 6.5585938 9 L 8 6.1171875 L 9.4414062 9 L 9 9 L 9 10 L 9 12 L 10 12 L 10 10.117188 L 10 10 L 11.058594 10 L 13 10 L 13 9 L 10.558594 9 L 9.0585938 6 L 10 6 L 10 3 L 6 3 z M 11 11 L 11 16 L 16 16 L 16 11 L 11 11 z M 12 12 L 13 12 L 13 13 L 14 13 L 14 12 L 15 12 L 15 14 L 14 14 L 14 15 L 13 15 L 13 14 L 12 14 L 12 12 z " fill="#c0bfbc" />
</svg>
