<?xml version="1.0" encoding="UTF-8"?>
<svg width="128" height="128" version="1.1" viewBox="0 0 128 128.00001" xmlns="http://www.w3.org/2000/svg">
<defs>
<linearGradient id="e" x1="2" x2="30" y1="27" y2="27" gradientTransform="matrix(4,0,0,4,0,-4)" gradientUnits="userSpaceOnUse">
<stop stop-color="#5e5c64" offset="0"/>
<stop stop-color="#9a9996" offset=".035714"/>
<stop stop-color="#5e5c64" offset=".071429"/>
<stop stop-color="#5e5c64" offset=".92857"/>
<stop stop-color="#9a9996" offset=".96429"/>
<stop stop-color="#5e5c64" offset="1"/>
</linearGradient>
<linearGradient id="d" x1="36" x2="60" y1="60" y2="60" gradientTransform="scale(.5)" gradientUnits="userSpaceOnUse">
<stop stop-color="#26a269" offset="0"/>
<stop stop-color="#33d17a" offset=".083333"/>
<stop stop-color="#26a269" offset=".16667"/>
<stop stop-color="#26a269" offset="1"/>
</linearGradient>
<linearGradient id="c" x1="4" x2="28" y1="50" y2="50" gradientTransform="scale(.5)" gradientUnits="userSpaceOnUse">
<stop stop-color="#e5a50a" offset="0"/>
<stop stop-color="#f6d32d" offset=".083333"/>
<stop stop-color="#e5a50a" offset=".16667"/>
<stop stop-color="#e5a50a" offset="1"/>
</linearGradient>
<linearGradient id="b" x1="20" x2="44" y1="18" y2="18" gradientTransform="scale(.5)" gradientUnits="userSpaceOnUse">
<stop stop-color="#a51d2d" offset="0"/>
<stop stop-color="#ed333b" offset=".083333"/>
<stop stop-color="#a51d2d" offset=".16667"/>
<stop stop-color="#a51d2d" offset="1"/>
</linearGradient>
</defs>
<rect x="8" y="24" width="112" height="24" ry="4" fill="#5e5c64" stroke-width="4"/>
<rect x="8" y="48" width="112" height="24" ry="4" fill="#5e5c64" stroke-width="4"/>
<rect x="8" y="72" width="112" height="24" ry="4.2348" fill="#5e5c64" stroke-width="4"/>
<rect x="8" y="92" width="112" height="20" ry="4" fill="url(#e)" stroke-width="4"/>
<rect x="8" y="12" width="112" height="20" ry="4" fill="#9a9996" stroke-width="4"/>
<rect x="8" y="36" width="112" height="20" ry="4" fill="#9a9996" stroke-width="4"/>
<rect x="8" y="60" width="112" height="20" ry="4" fill="#9a9996" stroke-width="4"/>
<rect x="8" y="84" width="112" height="20" ry="4" fill="#9a9996" stroke-width="4"/>
<rect x="56" y="16" width="60" height="12" ry="0" fill="#3d3846" stroke-width="4"/>
<rect x="56" y="20" width="60" height="8" ry="0" fill="#5e5c64" stroke-width="4"/>
<rect x="56" y="40" width="60" height="12" ry="0" fill="#3d3846" stroke-width="4"/>
<rect x="56" y="44" width="60" height="8" ry="0" fill="#5e5c64" stroke-width="4"/>
<rect x="56" y="64" width="60" height="12" ry="0" fill="#3d3846" stroke-width="4"/>
<rect x="56" y="68" width="60" height="8" ry="0" fill="#5e5c64" stroke-width="4"/>
<rect x="56" y="88" width="60" height="12" ry="0" fill="#3d3846" stroke-width="4"/>
<rect x="56" y="92" width="60" height="8" ry="0" fill="#5e5c64" stroke-width="4"/>
<rect x="16" y="16" width="4" height="8" ry="2" fill="#5e5c64" stroke-width="4"/>
<rect x="16" y="20" width="4" height="4" ry="2" fill="#f6d32d" stroke-width="4"/>
<rect x="24" y="16" width="4" height="8" ry="2" fill="#5e5c64" stroke-width="4"/>
<rect x="24" y="20" width="4" height="4" ry="2" fill="#33d17a" stroke-width="4"/>
<rect x="16" y="40" width="4" height="8" ry="2" fill="#5e5c64" stroke-width="4"/>
<rect x="16" y="44" width="4" height="4" ry="2" fill="#33d17a" stroke-width="4"/>
<rect x="24" y="40" width="4" height="8" ry="2" fill="#5e5c64" stroke-width="4"/>
<rect x="24" y="44" width="4" height="4" ry="2" fill="#e01b24" stroke-width="4"/>
<rect x="16" y="64" width="4" height="8" ry="2" fill="#5e5c64" stroke-width="4"/>
<rect x="16" y="68" width="4" height="4" ry="2" fill="#e01b24" stroke-width="4"/>
<rect x="24" y="64" width="4" height="8" ry="2" fill="#5e5c64" stroke-width="4"/>
<rect x="24" y="68" width="4" height="4" ry="2" fill="#f6d32d" stroke-width="4"/>
<rect x="16" y="88" width="4" height="8" ry="2" fill="#5e5c64" stroke-width="4"/>
<rect x="16" y="92" width="4" height="4" ry="2" fill="#f6d32d" stroke-width="4"/>
<rect x="24" y="88" width="4" height="8" ry="2" fill="#5e5c64" stroke-width="4"/>
<rect x="24" y="92" width="4" height="4" ry="2" fill="#33d17a" stroke-width="4"/>
<rect x="60" y="44" width="4" height="8" fill="#3d3846" stroke-width="4"/>
<rect x="60" y="40" width="4" height="4" fill="#241f31" stroke-width="4"/>
<rect x="68" y="44" width="4" height="8" fill="#3d3846" stroke-width="4"/>
<rect x="68" y="40" width="4" height="4" fill="#241f31" stroke-width="4"/>
<rect x="76" y="44" width="4" height="8" fill="#3d3846" stroke-width="4"/>
<rect x="76" y="40" width="4" height="4" fill="#241f31" stroke-width="4"/>
<rect x="84" y="44" width="4" height="8" fill="#3d3846" stroke-width="4"/>
<rect x="84" y="40" width="4" height="4" fill="#241f31" stroke-width="4"/>
<rect x="92" y="44" width="4" height="8" fill="#3d3846" stroke-width="4"/>
<rect x="92" y="40" width="4" height="4" fill="#241f31" stroke-width="4"/>
<rect x="100" y="44" width="4" height="8" fill="#3d3846" stroke-width="4"/>
<rect x="100" y="40" width="4" height="4" fill="#241f31" stroke-width="4"/>
<rect x="108" y="44" width="4" height="8" fill="#3d3846" stroke-width="4"/>
<rect x="108" y="40" width="4" height="4" fill="#241f31" stroke-width="4"/>
<rect x="60" y="20" width="4" height="8" fill="#3d3846" stroke-width="4"/>
<rect x="60" y="16" width="4" height="4" fill="#241f31" stroke-width="4"/>
<rect x="68" y="20" width="4" height="8" fill="#3d3846" stroke-width="4"/>
<rect x="68" y="16" width="4" height="4" fill="#241f31" stroke-width="4"/>
<rect x="76" y="20" width="4" height="8" fill="#3d3846" stroke-width="4"/>
<rect x="76" y="16" width="4" height="4" fill="#241f31" stroke-width="4"/>
<rect x="84" y="20" width="4" height="8" fill="#3d3846" stroke-width="4"/>
<rect x="84" y="16" width="4" height="4" fill="#241f31" stroke-width="4"/>
<rect x="92" y="20" width="4" height="8" fill="#3d3846" stroke-width="4"/>
<rect x="92" y="16" width="4" height="4" fill="#241f31" stroke-width="4"/>
<rect x="100" y="20" width="4" height="8" fill="#3d3846" stroke-width="4"/>
<rect x="100" y="16" width="4" height="4" fill="#241f31" stroke-width="4"/>
<rect x="108" y="20" width="4" height="8" fill="#3d3846" stroke-width="4"/>
<rect x="108" y="16" width="4" height="4" fill="#241f31" stroke-width="4"/>
<rect x="60" y="68" width="4" height="8" fill="#3d3846" stroke-width="4"/>
<rect x="60" y="64" width="4" height="4" fill="#241f31" stroke-width="4"/>
<rect x="68" y="68" width="4" height="8" fill="#3d3846" stroke-width="4"/>
<rect x="68" y="64" width="4" height="4" fill="#241f31" stroke-width="4"/>
<rect x="76" y="68" width="4" height="8" fill="#3d3846" stroke-width="4"/>
<rect x="76" y="64" width="4" height="4" fill="#241f31" stroke-width="4"/>
<rect x="84" y="68" width="4" height="8" fill="#3d3846" stroke-width="4"/>
<rect x="84" y="64" width="4" height="4" fill="#241f31" stroke-width="4"/>
<rect x="92" y="68" width="4" height="8" fill="#3d3846" stroke-width="4"/>
<rect x="92" y="64" width="4" height="4" fill="#241f31" stroke-width="4"/>
<rect x="100" y="68" width="4" height="8" fill="#3d3846" stroke-width="4"/>
<rect x="100" y="64" width="4" height="4" fill="#241f31" stroke-width="4"/>
<rect x="108" y="68" width="4" height="8" fill="#3d3846" stroke-width="4"/>
<rect x="108" y="64" width="4" height="4" fill="#241f31" stroke-width="4"/>
<rect x="60" y="92" width="4" height="8" fill="#3d3846" stroke-width="4"/>
<rect x="60" y="88" width="4" height="4" fill="#241f31" stroke-width="4"/>
<rect x="68" y="92" width="4" height="8" fill="#3d3846" stroke-width="4"/>
<rect x="68" y="88" width="4" height="4" fill="#241f31" stroke-width="4"/>
<rect x="76" y="92" width="4" height="8" fill="#3d3846" stroke-width="4"/>
<rect x="76" y="88" width="4" height="4" fill="#241f31" stroke-width="4"/>
<rect x="84" y="92" width="4" height="8" fill="#3d3846" stroke-width="4"/>
<rect x="84" y="88" width="4" height="4" fill="#241f31" stroke-width="4"/>
<rect x="92" y="92" width="4" height="8" fill="#3d3846" stroke-width="4"/>
<rect x="92" y="88" width="4" height="4" fill="#241f31" stroke-width="4"/>
<rect x="100" y="92" width="4" height="8" fill="#3d3846" stroke-width="4"/>
<rect x="100" y="88" width="4" height="4" fill="#241f31" stroke-width="4"/>
<rect x="108" y="92" width="4" height="8" fill="#3d3846" stroke-width="4"/>
<rect x="108" y="88" width="4" height="4" fill="#241f31" stroke-width="4"/>
<g transform="matrix(2,0,0,2,32,26)">
<rect x="10" y="4" width="12" height="10" ry="1" fill="url(#b)"/>
<path d="m10 19 3-5v-1l-5 6z" fill="#9a9996"/>
<rect x="2" y="20" width="12" height="9" ry="1" fill="url(#c)"/>
<rect x="18" y="20" width="12" height="9" ry="1" fill="url(#d)"/>
<rect x="10" y="3" width="12" height="9" ry="1" fill="#ed333b"/>
<path d="m10 18 3-5h-2l-3 5z" fill="#c0bfbc"/>
<rect x="2" y="18" width="12" height="9" ry="1" fill="#f6d32d"/>
<path d="m22 19-3-5v-1l5 6z" fill="#9a9996"/>
<path d="m22 18-3-5h2l3 5z" fill="#c0bfbc"/>
<rect x="18" y="18" width="12" height="9" ry="1" fill="#33d17a"/>
<rect x="19" y="20" width="10" height="1" ry="0" fill="#26a269"/>
<rect x="19" y="22" width="10" height="1" ry="0" fill="#26a269"/>
<rect x="19" y="24" width="10" height="1" ry="0" fill="#26a269"/>
<rect x="3" y="20" width="10" height="1" ry="0" fill="#e5a50a"/>
<rect x="3" y="22" width="10" height="1" ry="0" fill="#e5a50a"/>
<rect x="3" y="24" width="10" height="1" ry="0" fill="#e5a50a"/>
<rect x="11" y="5" width="10" height="1" ry="0" fill="#a51d2d"/>
<rect x="11" y="7" width="10" height="1" ry="0" fill="#a51d2d"/>
<rect x="11" y="9" width="10" height="1" ry="0" fill="#a51d2d"/>
</g>
</svg>
